<?xml version="1.0"?>
<svg xmlns="http://www.w3.org/2000/svg" height="512px" viewBox="-16 0 448 448" width="512px"><path d="m312 240c-57.4375 0-104 46.5625-104 104s46.5625 104 104 104 104-46.5625 104-104c-.054688-57.414062-46.585938-103.945312-104-104zm8 112v64h-16v-64h-72v-16h72v-72h16v72h72v16zm0 0" fill="#4f4f4f"/><path d="m256 237.921875v-173.921875h-232c-8.691406-.023438-17.128906-2.921875-24-8.238281v352.238281h210.640625c-17.921875-28.230469-23.214844-62.671875-14.597656-94.980469 8.617187-32.3125 30.359375-59.542969 59.957031-75.097656zm0 0" fill="#4f4f4f"/><path d="m24 48h216.238281c-10.984375-14.113281-10.984375-33.886719 0-48h-216.238281c-13.253906 0-24 10.746094-24 24s10.746094 24 24 24zm0 0" fill="#4f4f4f"/></svg>
