<?xml version="1.0"?>
<svg xmlns="http://www.w3.org/2000/svg" height="512px" viewBox="-32 0 480 480" width="512px"><path d="m369.304688 331.257812c-9.460938-6.261718-19.890626-10.917968-30.863282-13.785156l-74.441406-19.640625v-24.984375c27.195312-15.742187 46.546875-42.167968 53.34375-72.847656h2.65625c17.671875 0 32-14.328125 32-32-.027344-7.722656-2.871094-15.171875-8-20.945312v-11.054688c0-75.109375-60.890625-136-136-136s-136 60.890625-136 136v11.054688c-5.128906 5.773437-7.972656 13.222656-8 20.945312 0 17.671875 14.328125 32 32 32h2.65625c6.796875 30.679688 26.148438 57.105469 53.34375 72.847656v24.984375l-74.398438 19.640625c-45.714843 11.96875-77.601562 53.273438-77.601562 100.527344v54c0 4.417969 3.582031 8 8 8h400c4.417969 0 8-3.582031 8-8v-54c.070312-34.941406-17.488281-67.5625-46.695312-86.742188zm-151.082032 52.742188h-20.445312l-6.511719-19.566406 16.734375-4.1875 16.734375 4.1875zm-53.886718-64.351562 28 28-37.359376 9.34375zm59.3125 28 28-28 9.34375 37.359374zm-7.648438-163.648438c0 4.417969-3.582031 8-8 8s-8-3.582031-8-8v-40h16zm-96-48h-8v-7.574219c2.296875 0 4.976562-.089843 8-.304687zm16-8h48v32h-48zm96 0h48v32h-48zm-8-16c-4.417969 0-8 3.582031-8 8v8h-16v-8c0-4.417969-3.582031-8-8-8h-16.761719c15.03125-7.808594 28.902344-17.671875 41.210938-29.304688 13.839843 11.019532 28.605469 20.824219 44.136719 29.304688zm72 14c2.6875.617188 5.367188 1.144531 8 1.480469v8.519531h-8zm24 58v-32c8.835938 0 16 7.164062 16 16s-7.164062 16-16 16zm-112-168c66.242188.074219 119.925781 53.757812 120 120v1.136719c-2.605469-.722657-5.296875-1.101563-8-1.136719v-16c0-4.417969-3.582031-8-8-8-36.550781 0-90.257812-45.601562-90.800781-46.078125-3.171875-2.714844-7.902344-2.53125-10.855469.421875-52.214844 52.214844-103.144531 46.03125-105.207031 45.734375-2.296875-.328125-4.625.355469-6.378907 1.875-1.75 1.519531-2.757812 3.726563-2.757812 6.046875v16c-2.703125.035156-5.394531.414062-8 1.136719v-1.136719c.074219-66.242188 53.757812-119.925781 120-120zm-112 168c-8.835938 0-16-7.164062-16-16s7.164062-16 16-16zm16-8v-24h8v16c0 4.417969 3.582031 8 8 8h56v8c0 13.253906 10.746094 24 24 24s24-10.746094 24-24v-8h56c4.417969 0 8-3.582031 8-8v-16h8v24c0 53.019531-42.980469 96-96 96s-96-42.980469-96-96zm96 112c13.683594-.019531 27.242188-2.566406 40-7.511719v20.199219l-40 40-40-40v-20.199219c12.757812 4.945313 26.316406 7.492188 40 7.511719zm-192 130c0-39.964844 26.945312-74.90625 65.601562-85.0625l67.359376-17.738281-12.722657 50.878906c-.675781 2.726563.121094 5.605469 2.109375 7.589844 1.984375 1.988281 4.863282 2.785156 7.589844 2.109375l29.757812-7.441406 8 24.199218-14.253906 71.464844h-65.441406v-56h-16v56h-72zm169.761719 46 12.796875-64h18.898437l12.800781 64zm214.238281 0h-72v-56h-16v56h-65.441406l-14.292969-71.480469 8-24.199219 29.757813 7.441407c2.726562.675781 5.605468-.121094 7.589843-2.109375 1.984375-1.984375 2.785157-4.863282 2.105469-7.589844l-12.679688-50.863281 67.359376 17.738281c38.644531 10.171875 65.585937 45.101562 65.601562 85.0625zm0 0" fill="#4f4f4f"/><path d="m260.398438 137.359375c-.40625-.316406-.867188-.558594-1.359376-.71875-.476562-.242187-.996093-.40625-1.527343-.480469-1.53125-.328125-3.125-.160156-4.550781.480469-.980469.386719-1.875.957031-2.640626 1.679687-2.234374 2.316407-2.921874 5.714844-1.769531 8.71875.472657.953126 1.066407 1.84375 1.769531 2.640626 2.289063 2.289062 5.742188 2.957031 8.71875 1.679687.96875-.40625 1.863282-.976563 2.640626-1.679687 1.503906-1.507813 2.339843-3.550782 2.320312-5.679688-.03125-2.117188-.859375-4.148438-2.320312-5.679688-.394532-.363281-.820313-.683593-1.28125-.960937zm0 0" fill="#4f4f4f"/><path d="m156.960938 136.640625c-.988282.367187-1.890626.9375-2.640626 1.679687-1.464843 1.53125-2.292968 3.5625-2.320312 5.679688-.023438 2.128906.8125 4.175781 2.320312 5.679688 1.503907 1.507812 3.550782 2.34375 5.679688 2.320312 1.039062.011719 2.074219-.175781 3.039062-.558594.972657-.4375 1.863282-1.03125 2.640626-1.761718 1.503906-1.507813 2.339843-3.550782 2.320312-5.679688-.03125-2.117188-.859375-4.148438-2.320312-5.679688-2.300782-2.269531-5.742188-2.933593-8.71875-1.679687zm0 0" fill="#4f4f4f"/><path d="m255.617188 229.238281-12.082032-10.476562c-9.519531 9.109375-22.375 13.898437-35.535156 13.238281-13.160156.660156-26.015625-4.128906-35.535156-13.238281l-12.082032 10.476562c12.515626 12.695313 29.808594 19.507813 47.617188 18.761719 17.808594.746094 35.101562-6.066406 47.617188-18.761719zm0 0" fill="#4f4f4f"/></svg>
